<?xml version="1.0" encoding="UTF-8"?>
<svg version="1.1" xmlns="http://www.w3.org/2000/svg" width="1024" height="1024">
<path d="M0 0 C3.03886899 1.54694941 5.43480131 3.45169814 6.64453125 6.765625 C7.80179175 14.03983384 7.18064798 21.7601195 6.5 29.0625 C5.62416662 38.55903622 5.94027827 47.99135432 6.4375 57.5 C6.49623291 58.64879639 6.49623291 58.64879639 6.55615234 59.82080078 C6.72138951 62.68681099 6.89116439 65.48565342 7.48632812 68.29833984 C8.11423607 71.60082524 8.32732182 74.83969238 8.53515625 78.1953125 C8.59996185 79.24116013 8.59996185 79.24116013 8.66607666 80.30813599 C8.80390276 82.58013168 8.93448264 84.85243126 9.0625 87.125 C9.10635834 87.90000854 9.15021667 88.67501709 9.19540405 89.47351074 C9.7831699 100.06338997 10.22852675 110.64261762 10.3125 121.25 C10.33872437 122.88799561 10.33872437 122.88799561 10.36547852 124.55908203 C10.35713833 136.25572868 5.42732299 143.11440062 -2 152 C-3.73410839 153.70030511 -5.47280132 155.2383062 -7.39453125 156.71875 C-9.10447864 158.02994388 -9.10447864 158.02994388 -10.84765625 159.88671875 C-20.9441444 169.79996755 -34.03233829 177.57306401 -46 185 C-46.89074219 185.56203125 -47.78148437 186.1240625 -48.69921875 186.703125 C-51 188 -51 188 -53 188 C-53 188.66 -53 189.32 -53 190 C-55.90548882 192.04169485 -57.40142046 193 -61 193 C-61 193.66 -61 194.32 -61 195 C-61.66 195 -62.32 195 -63 195 C-63 196.65 -63 198.3 -63 200 C-62.2265625 200.3403125 -62.2265625 200.3403125 -61.4375 200.6875 C-58.10452995 202.48217618 -54.85296329 204.49965015 -52 207 C-52 207.66 -52 208.32 -52 209 C-51.4225 209.061875 -50.845 209.12375 -50.25 209.1875 C-46.78894616 210.437325 -45.80598274 211.77503083 -44 215 C-43.82910156 217.71142578 -43.82910156 217.71142578 -43.890625 220.6953125 C-43.90641602 221.68805176 -43.92220703 222.68079102 -43.93847656 223.70361328 C-43.9587793 224.4614209 -43.97908203 225.21922852 -44 226 C-43.00755028 225.99907821 -42.01510056 225.99815641 -40.9925766 225.99720669 C-16.83876008 225.97500241 7.31505512 225.95857198 31.4688797 225.94818783 C43.14950422 225.9430326 54.830122 225.9360046 66.51074219 225.92456055 C76.69212775 225.91459012 86.87350843 225.90814094 97.05489874 225.90591151 C102.44532215 225.90460842 107.83573158 225.9015479 113.22615051 225.89426994 C118.30185838 225.88747255 123.37754653 225.88539062 128.45325851 225.88689232 C130.31401552 225.88661766 132.17477321 225.88463464 134.03552628 225.88079453 C136.58136607 225.87579916 139.12713203 225.87702319 141.67297363 225.87974548 C142.40451487 225.87683264 143.13605611 225.8739198 143.88976526 225.87091869 C148.67145479 225.88468257 153.26434196 226.32973259 158 227 C155.67889437 222.17210029 153.17299058 217.54494705 150.4375 212.9375 C147.93417218 208.69575008 145.81002376 204.5726916 144 200 C143.608125 199.2575 143.21625 198.515 142.8125 197.75 C142 196 142 196 142 193 C141.34 193 140.68 193 140 193 C138.35136614 190.40197004 136.8157176 187.80569603 135.3125 185.125 C131.9105446 179.1735872 128.40480608 173.46756572 124.27734375 167.98046875 C122.97702572 165.96437933 122.42697612 164.34573303 122 162 C121.34 162 120.68 162 120 162 C118.58530194 160.02734991 117.28631641 158.05422512 116 156 C115.1908001 154.76735848 114.37819548 153.5369465 113.5625 152.30859375 C113.14226562 151.67373047 112.72203125 151.03886719 112.2890625 150.38476562 C111.86367188 149.74216797 111.43828125 149.09957031 111 148.4375 C110.57460938 147.79103516 110.14921875 147.14457031 109.7109375 146.47851562 C105.22652275 139.71750382 100.81359775 134.5423985 94 130 C94 129.34 94 128.68 94 128 C93.401875 127.87625 92.80375 127.7525 92.1875 127.625 C90 127 90 127 87 125 C87 124.34 87 123.68 87 123 C85.9790625 122.690625 85.9790625 122.690625 84.9375 122.375 C81.08360625 120.57104973 77.92212236 118.0989655 75 115 C75 114.34 75 113.68 75 113 C74.195625 112.731875 73.39125 112.46375 72.5625 112.1875 C71.716875 111.795625 70.87125 111.40375 70 111 C69.67 110.01 69.34 109.02 69 108 C67.34360921 107.30819672 65.67521912 106.64487451 64 106 C61.89453125 104.3359375 61.89453125 104.3359375 59.8125 102.375 C55.6719136 98.55506507 51.3462059 95.08340237 46.87109375 91.6640625 C46.25363281 91.11492187 45.63617188 90.56578125 45 90 C45 89.34 45 88.68 45 88 C44.195625 87.731875 43.39125 87.46375 42.5625 87.1875 C41.716875 86.795625 40.87125 86.40375 40 86 C39.67 85.01 39.34 84.02 39 83 C37.66849146 82.32969616 36.33469944 81.66392742 35 81 C33.06915691 79.310162 31.24948914 77.61959849 29.4375 75.8125 C28.95603516 75.35552734 28.47457031 74.89855469 27.97851562 74.42773438 C23.51011063 69.99620755 21.2869625 65.72614376 20.625 59.4375 C21.12251336 54.87696085 22.71071152 51.84184068 25.3125 48.125 C28.11779788 46.25480141 29.67004147 46.44500691 33 47 C40.12309311 50.53996143 46.10476399 56.34103129 52.08203125 61.51171875 C54.85226665 63.94551427 54.85226665 63.94551427 57.38671875 65.70703125 C57.91910156 66.13371094 58.45148438 66.56039062 59 67 C59 67.66 59 68.32 59 69 C59.57234375 69.09410156 60.1446875 69.18820312 60.734375 69.28515625 C63.52332319 70.16511749 65.07276886 71.49815152 67.25 73.4375 C67.95640625 74.05496094 68.6628125 74.67242188 69.390625 75.30859375 C71 77 71 77 71 79 C71.78375 79.268125 72.5675 79.53625 73.375 79.8125 C76 81 76 81 78 84 C78.86625 84.515625 79.7325 85.03125 80.625 85.5625 C81.40875 86.036875 82.1925 86.51125 83 87 C83 87.66 83 88.32 83 89 C83.70125 89.226875 84.4025 89.45375 85.125 89.6875 C88.6013813 91.27454364 91.18147585 93.47851001 94 96 C99.49683087 100.9815043 99.49683087 100.9815043 105.5 105.3125 C106.325 105.869375 107.15 106.42625 108 107 C108 107.66 108 108.32 108 109 C108.61875 109.309375 109.2375 109.61875 109.875 109.9375 C111.25 110.625 112.625 111.3125 114 112 C114 112.66 114 113.32 114 114 C114.66 114 115.32 114 116 114 C116 114.66 116 115.32 116 116 C116.56460938 116.22816406 117.12921875 116.45632813 117.7109375 116.69140625 C120.62190815 118.3555277 122.41563381 120.42148265 124.625 122.9375 C125.40101563 123.81277344 126.17703125 124.68804688 126.9765625 125.58984375 C131 130.38223938 131 130.38223938 131 134 C131.99 134.33 132.98 134.66 134 135 C134.95117546 136.32485154 135.88923315 137.66157835 136.75 139.046875 C138.88317572 142.37996206 141.27420356 145.5367784 143.609375 148.73046875 C145 151 145 151 145 154 C145.66 154 146.32 154 147 154 C148.33858524 156.28874173 149.67101014 158.58069656 151 160.875 C151.3815625 161.52597656 151.763125 162.17695312 152.15625 162.84765625 C155 167.7734375 155 167.7734375 155 170 C155.66 170 156.32 170 157 170 C161.07655081 175.79137193 164.08227581 181.99031502 166.5 188.625 C168.23141257 193.18365906 168.23141257 193.18365906 172.375 195.6875 C174.169375 195.8421875 174.169375 195.8421875 176 196 C185.99877722 197.13193704 194.18910318 200.3878212 201 208 C202.94409503 211.070286 203.24799858 213.39208487 203.1875 217 C203.18105469 217.845625 203.17460938 218.69125 203.16796875 219.5625 C203.01110334 221.8388724 202.58208599 223.8028794 202 226 C203.25423264 225.99333817 204.50846527 225.98667633 205.80070496 225.97981262 C217.61618471 225.919018 229.43163276 225.87403521 241.24723339 225.84456348 C247.32187095 225.82890247 253.39638233 225.80765595 259.47094727 225.77368164 C265.33238784 225.74110418 271.19370698 225.72315027 277.05523109 225.71536827 C279.29236068 225.7098219 281.52948357 225.69899132 283.76656151 225.68280983 C286.89815043 225.66105737 290.02923645 225.65803221 293.16088867 225.65942383 C294.08733688 225.648638 295.0137851 225.63785217 295.9683075 225.6267395 C300.84254062 225.65020307 304.00776603 225.88978078 308 229 C308.598125 229.4125 309.19625 229.825 309.8125 230.25 C311.84316084 233.24255282 311.46861025 235.48542309 311 239 C308.85069308 243.23891088 306.50665444 246.28852512 302 248 C299.18883791 248.18403488 296.47937382 248.25632487 293.66926575 248.23300171 C292.81556658 248.23388585 291.96186741 248.23477 291.08229858 248.23568094 C288.195153 248.23618041 285.30825298 248.22225074 282.42114258 248.20849609 C280.32924933 248.20584854 278.23735482 248.20407969 276.14546013 248.20311356 C270.3545973 248.1978286 264.56383073 248.17988102 258.77300239 248.15992022 C252.50410175 248.14041749 246.23518502 248.13225241 239.96626282 248.12265015 C228.92591079 248.10413096 217.88559979 248.07798126 206.84527588 248.04724121 C194.74400619 248.01361485 182.64274017 247.98602376 170.54144287 247.96447754 C169.37958855 247.96240027 169.37958855 247.96240027 168.19426243 247.96028104 C165.0372 247.95464644 161.88013753 247.94903894 158.72307499 247.9434634 C126.54907913 247.8865515 94.37518087 247.80782996 62.20127678 247.71243668 C58.83218264 247.70247226 55.46308842 247.6925353 52.09399414 247.68261719 C51.25850423 247.68015203 50.42301431 247.67768688 49.56220652 247.67514703 C35.73077326 247.63453424 21.89933159 247.60210777 8.06787088 247.57250018 C-6.36826877 247.5414531 -20.8043738 247.50297667 -35.2404744 247.45720994 C-43.25597402 247.43199038 -51.27145262 247.41001612 -59.28698158 247.39665604 C-66.02071981 247.38542788 -72.75439771 247.36759027 -79.48809294 247.34083296 C-82.91006337 247.32744334 -86.33196351 247.31729856 -89.75396156 247.31578636 C-93.45348975 247.31248225 -97.15277092 247.29706082 -100.85224915 247.2784729 C-101.93469369 247.28040763 -103.01713823 247.28234237 -104.13238412 247.28433573 C-105.11916341 247.27687024 -106.1059427 247.26940475 -107.1226244 247.26171303 C-107.97421786 247.25943471 -108.82581133 247.25715638 -109.70321065 247.25480902 C-113.83994288 246.79587416 -115.62587217 245.45726735 -118.25 242.25 C-120.19874083 238.63090989 -120.7549471 237.02638453 -120 233 C-118.15658574 230.08182761 -116.13795376 227.56897688 -113 226 C-110.55411979 225.90136829 -108.13739328 225.86013546 -105.69140625 225.8671875 C-104.96888168 225.86623077 -104.24635712 225.86527405 -103.50193787 225.86428833 C-101.97288933 225.86360748 -100.44383791 225.86545514 -98.91479492 225.86962891 C-96.57529183 225.87497079 -94.23598141 225.86968476 -91.89648438 225.86328125 C-90.41145791 225.8639422 -88.92643156 225.86522371 -87.44140625 225.8671875 C-86.39129112 225.86415115 -86.39129112 225.86415115 -85.31996155 225.86105347 C-82.26773217 225.87576459 -79.92005075 226.02664975 -77 227 C-78.46884731 223.12758436 -80.49706804 222.02801324 -84 220 C-84 219.34 -84 218.68 -84 218 C-84.57492187 217.9175 -85.14984375 217.835 -85.7421875 217.75 C-90.38533001 216.20764124 -93.2689153 211.88447495 -96 208 C-98.04734874 203.48533355 -98.32340063 200.22892238 -97.0625 195.4375 C-93.55782281 188.73967248 -87.24894772 181.41631591 -80 179 C-79.46375 178.443125 -78.9275 177.88625 -78.375 177.3125 C-75.06528598 174.08988372 -69.81865555 169 -65 169 C-65 168.34 -65 167.68 -65 167 C-62.76953125 165.37890625 -62.76953125 165.37890625 -59.8125 163.5625 C-58.84957031 162.96566406 -57.88664062 162.36882812 -56.89453125 161.75390625 C-55.15639807 160.70070544 -53.41110315 159.65900815 -51.65234375 158.640625 C-47.90048777 156.31988934 -44.33992212 153.7494187 -40.75 151.1875 C-30.75276576 144.10047442 -30.75276576 144.10047442 -26.5625 141.25 C-25.90378906 140.80140625 -25.24507813 140.3528125 -24.56640625 139.890625 C-23 139 -23 139 -21 139 C-20.34 137.68 -19.68 136.36 -19 135 C-18.34 135 -17.68 135 -17 135 C-14.74762426 120.83056983 -16.16426741 106.09583695 -16.74462891 91.81225586 C-16.87460547 88.57233442 -16.99411344 85.33213158 -17.11328125 82.09179688 C-17.4601366 73.18802595 -17.80645358 64.34578825 -19.046875 55.515625 C-20.07586448 48.08269493 -20.37234559 40.79017936 -20.37060547 33.2980957 C-20.37503653 31.16995369 -20.41173114 29.04380237 -20.44921875 26.91601562 C-20.52515212 17.65703202 -20.1590077 8.25803169 -13.375 1.3125 C-8.78786953 -0.47138407 -4.8531814 -0.92029534 0 0 Z " fill="#101828" transform="translate(413,455)"/>
<path d="M0 0 C0.845625 -0.01417969 1.69125 -0.02835937 2.5625 -0.04296875 C5.15408616 0.20206904 6.77024992 0.88165099 9 2.1875 C9 2.8475 9 3.5075 9 4.1875 C9.99 4.5175 10.98 4.8475 12 5.1875 C13.45202486 9.54357459 13.62683757 13.6392832 13 18.1875 C9.17035482 23.69261494 2.93584384 26.55839061 -3.5 27.9375 C-4.325 28.02 -5.15 28.1025 -6 28.1875 C-6 28.8475 -6 29.5075 -6 30.1875 C-6.61875 30.249375 -7.2375 30.31125 -7.875 30.375 C-10.25602845 31.00801688 -10.25602845 31.00801688 -11.1875 33.625 C-11.455625 34.470625 -11.72375 35.31625 -12 36.1875 C-12.33 36.8475 -12.66 37.5075 -13 38.1875 C-13.66 38.1875 -14.32 38.1875 -15 38.1875 C-15.37125 39.4559375 -15.37125 39.4559375 -15.75 40.75 C-17.14209487 44.57826088 -18.91649003 47.69258005 -21 51.1875 C-21.33 51.8475 -21.66 52.5075 -22 53.1875 C-22.66 53.1875 -23.32 53.1875 -24 53.1875 C-24.20302734 54.11369141 -24.20302734 54.11369141 -24.41015625 55.05859375 C-25.96227087 61.16481712 -28.19625875 65.10138907 -32.234375 69.89453125 C-34.62968075 73.00524912 -36.14744601 76.36019777 -37.8125 79.8984375 C-39.47754377 83.10802845 -41.60908031 85.48198562 -44 88.1875 C-44.556875 89.13625 -45.11375 90.085 -45.6875 91.0625 C-46.120625 91.76375 -46.55375 92.465 -47 93.1875 C-47.66 93.1875 -48.32 93.1875 -49 93.1875 C-49.66 94.8375 -50.32 96.4875 -51 98.1875 C-51.66 98.1875 -52.32 98.1875 -53 98.1875 C-53.25523437 98.78691406 -53.51046875 99.38632812 -53.7734375 100.00390625 C-61.29385887 113.39217233 -87.66278378 122.25605063 -101.40234375 126.15234375 C-102.56894531 126.47332031 -103.73554688 126.79429687 -104.9375 127.125 C-109.84819997 128.51627911 -114.37326818 130.05920336 -119 132.1875 C-121.64774696 133.24108264 -124.31930061 134.221259 -127 135.1875 C-127.76957031 135.46980469 -128.53914063 135.75210938 -129.33203125 136.04296875 C-133.32480969 137.45335317 -136.69853233 138.60377107 -141 138.1875 C-141 138.8475 -141 139.5075 -141 140.1875 C-142.5811292 140.69442692 -144.16501383 141.19276443 -145.75 141.6875 C-146.63171875 141.9659375 -147.5134375 142.244375 -148.421875 142.53125 C-151 143.1875 -151 143.1875 -155 143.1875 C-155 143.8475 -155 144.5075 -155 145.1875 C-155.67804688 145.49042969 -156.35609375 145.79335938 -157.0546875 146.10546875 C-174.96890808 153.95150074 -174.96890808 153.95150074 -190 166.1875 C-191.2065625 167.363125 -191.2065625 167.363125 -192.4375 168.5625 C-195.01674597 171.20465441 -197.34899771 173.96238107 -199.66796875 176.83203125 C-200.10753906 177.27933594 -200.54710937 177.72664062 -201 178.1875 C-201.66 178.1875 -202.32 178.1875 -203 178.1875 C-203.08507812 178.90035156 -203.17015625 179.61320313 -203.2578125 180.34765625 C-204.16093164 183.80327529 -205.69345886 185.8081749 -207.875 188.625 C-210.74586988 192.34865595 -212.99808793 195.931334 -215 200.1875 C-222.97660819 216.59080712 -222.97660819 216.59080712 -231 220.1875 C-235.08218134 220.85397859 -236.61129234 220.40427927 -240.25 218.375 C-243 216.1875 -243 216.1875 -245 213.1875 C-245.90033145 204.94842032 -245.58851771 198.14778532 -241 191.1875 C-240.24430993 189.85738335 -239.49406279 188.52415566 -238.75 187.1875 C-238.1725 186.1975 -237.595 185.2075 -237 184.1875 C-236.34 184.1875 -235.68 184.1875 -235 184.1875 C-234.896875 183.62160156 -234.79375 183.05570313 -234.6875 182.47265625 C-230.99692688 170.20569447 -217.51670905 158.38223831 -209 149.1875 C-208.47019531 148.61515625 -207.94039063 148.0428125 -207.39453125 147.453125 C-206.30844192 146.31926048 -205.16178575 145.24366886 -204 144.1875 C-203.34 144.1875 -202.68 144.1875 -202 144.1875 C-201.67 143.1975 -201.34 142.2075 -201 141.1875 C-198.6015625 139.36328125 -198.6015625 139.36328125 -195.625 137.5 C-194.15933594 136.56607422 -194.15933594 136.56607422 -192.6640625 135.61328125 C-190 134.1875 -190 134.1875 -187 134.1875 C-187 133.5275 -187 132.8675 -187 132.1875 C-184.39939496 130.84679682 -181.79495084 129.51476646 -179.1875 128.1875 C-178.44951172 127.8059375 -177.71152344 127.424375 -176.95117188 127.03125 C-176.23896484 126.6703125 -175.52675781 126.309375 -174.79296875 125.9375 C-173.81106567 125.43476563 -173.81106567 125.43476563 -172.80932617 124.921875 C-171 124.1875 -171 124.1875 -168 124.1875 C-168 123.5275 -168 122.8675 -168 122.1875 C-166.73160474 121.68134702 -165.46016898 121.18280901 -164.1875 120.6875 C-163.47980469 120.4090625 -162.77210938 120.130625 -162.04296875 119.84375 C-160 119.1875 -160 119.1875 -157 119.1875 C-157 118.5275 -157 117.8675 -157 117.1875 C-155.4188708 116.68057308 -153.83498617 116.18223557 -152.25 115.6875 C-151.36828125 115.4090625 -150.4865625 115.130625 -149.578125 114.84375 C-147 114.1875 -147 114.1875 -143 114.1875 C-143 113.5275 -143 112.8675 -143 112.1875 C-142.10539062 111.94515625 -141.21078125 111.7028125 -140.2890625 111.453125 C-133.89004626 109.67941048 -127.69557315 107.7662622 -121.56640625 105.19140625 C-117.46638899 103.58759432 -113.24905177 102.38772667 -109.03515625 101.12109375 C-105.28454993 99.96743235 -101.64582597 98.6327577 -98 97.1875 C-97.18789063 96.87941406 -96.37578125 96.57132812 -95.5390625 96.25390625 C-91.52968748 94.70674502 -87.70866206 93.11951947 -84 90.9375 C-81 89.1875 -81 89.1875 -79 89.1875 C-79 88.5275 -79 87.8675 -79 87.1875 C-77.2421875 85.92578125 -77.2421875 85.92578125 -74.875 84.5 C-70.86546081 81.94273485 -68.05813446 79.28111288 -65.19140625 75.5078125 C-64.60166016 74.85425781 -64.60166016 74.85425781 -64 74.1875 C-63.34 74.1875 -62.68 74.1875 -62 74.1875 C-61.90074219 73.63320313 -61.80148437 73.07890625 -61.69921875 72.5078125 C-60.83608944 69.64357333 -59.46071455 67.5584717 -57.8125 65.0625 C-51.77119172 55.81723064 -51.77119172 55.81723064 -46.5 46.125 C-45.1654881 43.51158086 -43.71399331 41.23002262 -42.0625 38.8125 C-40.17483158 36.04330428 -38.52751981 33.35440963 -37.125 30.3125 C-33.30917906 22.36287305 -27.60732314 15.00823705 -21 9.1875 C-20.34 9.1875 -19.68 9.1875 -19 9.1875 C-19 8.5275 -19 7.8675 -19 7.1875 C-16.953125 5.71484375 -16.953125 5.71484375 -14.25 4.125 C-12.92742187 3.33416016 -12.92742187 3.33416016 -11.578125 2.52734375 C-7.64010195 0.4807651 -4.41345325 0.03363913 0 0 Z " fill="#101828" transform="translate(554,289.8125)"/>
<path d="M0 0 C5.82246568 -0.43282046 9.15283702 1.42931543 13.8671875 4.765625 C14.68509766 5.51199219 14.68509766 5.51199219 15.51953125 6.2734375 C15.51953125 6.9334375 15.51953125 7.5934375 15.51953125 8.2734375 C16.32390625 8.4590625 17.12828125 8.6446875 17.95703125 8.8359375 C28.43987007 13.06585492 35.96103391 21.98383918 40.35229492 32.21337891 C42.61152444 38.35077398 42.88331839 43.84043449 42.70703125 50.3359375 C42.68672852 51.77743164 42.68672852 51.77743164 42.66601562 53.24804688 C42.63105431 55.59045502 42.58199229 57.93162906 42.51953125 60.2734375 C44.00453125 60.7684375 44.00453125 60.7684375 45.51953125 61.2734375 C45.51953125 61.9334375 45.51953125 62.5934375 45.51953125 63.2734375 C46.05578125 63.3353125 46.59203125 63.3971875 47.14453125 63.4609375 C50.55649413 64.62818796 52.76947463 66.97236972 55.51953125 69.2734375 C58.23199305 70.5783859 58.23199305 70.5783859 60.51953125 71.2734375 C60.51953125 71.9334375 60.51953125 72.5934375 60.51953125 73.2734375 C61.24785156 73.36882812 61.97617187 73.46421875 62.7265625 73.5625 C65.9244524 74.37650834 67.6478655 75.58893909 70.20703125 77.6484375 C70.97402344 78.25429688 71.74101563 78.86015625 72.53125 79.484375 C74.51953125 81.2734375 74.51953125 81.2734375 76.51953125 84.2734375 C76.29634843 89.29505089 74.80862999 92.50300724 71.51953125 96.2734375 C63.37143665 101.31685046 56.67000714 102.47142933 47.26953125 102.5234375 C46.35300781 102.5440625 45.43648437 102.5646875 44.4921875 102.5859375 C32.72702318 102.65307111 22.11371247 97.29467331 13.51953125 89.2734375 C13.51953125 88.6134375 13.51953125 87.9534375 13.51953125 87.2734375 C12.93171875 87.18835938 12.34390625 87.10328125 11.73828125 87.015625 C8.89217675 86.063583 7.89023299 84.71980829 6.01953125 82.3984375 C2.32030731 77.8416662 -0.52950193 75.09996067 -6.48046875 74.2734375 C-6.48046875 73.6134375 -6.48046875 72.9534375 -6.48046875 72.2734375 C-7.53234375 72.3353125 -8.58421875 72.3971875 -9.66796875 72.4609375 C-17.82731117 72.47548178 -25.8187922 69.86170239 -33.48046875 67.2734375 C-35.08369059 66.83248777 -36.68782326 66.39483255 -38.29296875 65.9609375 C-45.07102986 63.93672015 -52.00266724 60.94003587 -56.48046875 55.2734375 C-57.52081737 48.52880449 -56.81730043 41.66897684 -54.48046875 35.2734375 C-54.17109375 34.19835937 -54.17109375 34.19835937 -53.85546875 33.1015625 C-51.47381589 25.03641985 -47.59555041 19.86398422 -41.08984375 14.609375 C-39.35847023 13.2430046 -39.35847023 13.2430046 -37.66796875 11.2109375 C-31.90334782 6.10513039 -24.90926918 3.80211151 -17.4140625 2.6328125 C-15.48051355 2.46214639 -15.48051355 2.46214639 -14.48046875 1.2734375 C-9.67031364 0.64093334 -4.82005511 0.53134466 0 0 Z M-16.48046875 17.2734375 C-16.48046875 17.9334375 -16.48046875 18.5934375 -16.48046875 19.2734375 C-17.21394531 19.5415625 -17.94742188 19.8096875 -18.703125 20.0859375 C-27.17261519 23.70721038 -32.69876898 29.98906641 -36.48046875 38.2734375 C-37.41580958 41.66309358 -37.41580958 41.66309358 -37.48046875 44.2734375 C-35.87896989 44.94648768 -34.27415846 45.61165977 -32.66796875 46.2734375 C-31.77464844 46.6446875 -30.88132812 47.0159375 -29.9609375 47.3984375 C-27.44732545 48.43976987 -27.44732545 48.43976987 -24.48046875 48.2734375 C-24.33351563 47.54640625 -24.1865625 46.819375 -24.03515625 46.0703125 C-21.67240668 35.47867651 -17.74121727 26.38839172 -10.48046875 18.2734375 C-10.48046875 17.6134375 -10.48046875 16.9534375 -10.48046875 16.2734375 C-13.53317338 16.11532362 -13.53317338 16.11532362 -16.48046875 17.2734375 Z M3.51953125 20.2734375 C-1.39840159 27.8081314 -4.61070448 34.25628951 -5.48046875 43.2734375 C-6.14046875 43.2734375 -6.80046875 43.2734375 -7.48046875 43.2734375 C-7.81046875 46.2434375 -8.14046875 49.2134375 -8.48046875 52.2734375 C-2.96152602 54.47173906 2.47175461 54.94631824 8.33203125 55.4609375 C9.29818359 55.55568359 10.26433594 55.65042969 11.25976562 55.74804688 C14.88467809 56.09838454 14.88467809 56.09838454 18.51953125 56.2734375 C20.26563922 54.52732953 19.77451508 52.21226366 19.83203125 49.8359375 C19.78708357 43.53577034 18.27882338 38.87229208 15.51953125 33.2734375 C15.02453125 32.2009375 14.52953125 31.1284375 14.01953125 30.0234375 C12.32701435 26.92048985 10.71621678 24.05159862 8.51953125 21.2734375 C5.94887554 20.57037924 5.94887554 20.57037924 3.51953125 20.2734375 Z M25.51953125 74.2734375 C27.49953125 75.2634375 27.49953125 75.2634375 29.51953125 76.2734375 C29.51953125 76.9334375 29.51953125 77.5934375 29.51953125 78.2734375 C36.19955335 82.12510982 41.78395786 84.09239217 49.51953125 84.2734375 C49.18953125 83.2834375 48.85953125 82.2934375 48.51953125 81.2734375 C45.51105707 80.04823486 45.51105707 80.04823486 42.51953125 79.2734375 C42.51953125 78.6134375 42.51953125 77.9534375 42.51953125 77.2734375 C36.58061703 74.6819113 31.97845839 73.86975455 25.51953125 74.2734375 Z " fill="#101828" transform="translate(666.48046875,240.7265625)"/>
<path d="M0 0 C0.69802734 0.04382813 1.39605469 0.08765625 2.11523438 0.1328125 C5.44127644 0.36066695 8.61539672 0.65017264 11.8125 1.625 C11.8125 2.285 11.8125 2.945 11.8125 3.625 C12.70066406 3.728125 13.58882813 3.83125 14.50390625 3.9375 C23.54462672 5.81609127 29.93721562 13.20834398 34.8125 20.625 C35.2353125 21.23859375 35.658125 21.8521875 36.09375 22.484375 C41.33771747 31.24929206 40.40607994 42.96502522 38.67578125 52.65234375 C37.54106774 56.55966041 35.7608656 59.41735341 33.3125 62.63671875 C31.92025011 64.48217499 30.94733102 66.24324805 29.9375 68.3125 C25.58936637 75.09047302 17.69353083 79.91357238 9.97436523 82.15991211 C6.06423703 83.00110852 2.11024632 82.85164325 -1.875 82.875 C-2.73544922 82.895625 -3.59589844 82.91625 -4.48242188 82.9375 C-13.72296364 82.99320786 -21.89942304 80.41084069 -29.1875 74.625 C-31.70360955 72.0934857 -33.9545132 69.40623931 -36.1875 66.625 C-36.909375 65.820625 -37.63125 65.01625 -38.375 64.1875 C-45.31386145 54.37738553 -46.68995811 42.58881788 -44.7265625 30.875 C-42.4755876 22.40074156 -37.68533872 15.45639372 -31.1875 9.625 C-30.48625 8.965 -29.785 8.305 -29.0625 7.625 C-19.92404881 1.26781657 -10.96118159 -0.82337514 0 0 Z M-18.1875 27.625 C-20.91651356 32.54229379 -23.24574894 37.98100564 -22.1875 43.625 C-19.60089513 50.87226157 -16.03731047 55.93454545 -9.1875 59.625 C-3.50364968 61.41415826 2.48490384 61.34547464 7.8125 58.625 C12.07415386 54.28197805 14.83809324 49.68797541 15.8125 43.625 C15.62133361 37.60325885 14.28131483 32.62147169 10.8125 27.625 C7.63401396 25.17716118 7.63401396 25.17716118 3.8125 24.625 C3.8125 23.965 3.8125 23.305 3.8125 22.625 C-4.57812862 21.21704871 -11.52599898 21.70366576 -18.1875 27.625 Z " fill="#101828" transform="translate(441.1875,290.375)"/>
<path d="M0 0 C0.91007813 0.00902344 1.82015625 0.01804687 2.7578125 0.02734375 C3.80582031 0.04474609 3.80582031 0.04474609 4.875 0.0625 C5.205 1.0525 5.535 2.0425 5.875 3.0625 C6.865 3.3925 7.855 3.7225 8.875 4.0625 C9.07073608 5.49890171 9.25627816 6.93669504 9.4375 8.375 C9.54191406 9.17550781 9.64632812 9.97601563 9.75390625 10.80078125 C9.875 13.0625 9.875 13.0625 8.875 16.0625 C7.3515625 17.5625 7.3515625 17.5625 5.5 19.0625 C3.67951741 20.54987301 1.93035448 22.00674048 0.2734375 23.67578125 C-2.33724673 26.26458823 -4.47042493 27.0625 -8.125 27.0625 C-8.125 27.7225 -8.125 28.3825 -8.125 29.0625 C-8.61226562 29.330625 -9.09953125 29.59875 -9.6015625 29.875 C-13.81049615 32.20139242 -17.99532727 34.56279864 -22.15771484 36.97167969 C-28.20454403 40.46540322 -34.31462873 43.69651613 -40.59375 46.76171875 C-43.27381649 48.07111759 -43.27381649 48.07111759 -46.125 50.125 C-49.89574649 52.56027377 -53.83172667 54.10551922 -57.98828125 55.77734375 C-60.87202741 56.9588537 -63.68152741 58.23444571 -66.5 59.5625 C-82.85714286 67.0625 -82.85714286 67.0625 -90.125 67.0625 C-90.125 67.7225 -90.125 68.3825 -90.125 69.0625 C-90.91003906 69.31644531 -91.69507813 69.57039063 -92.50390625 69.83203125 C-99.24312616 72.00171054 -99.24312616 72.00171054 -105.8125 74.625 C-109.17048565 76.08223906 -112.53121835 77.25638672 -116.015625 78.3671875 C-118.26722439 79.07780557 -118.26722439 79.07780557 -120.9375 80.25 C-127.05339642 81.80895399 -133.68078009 82.48014755 -139.25 79.25 C-141.57265752 76.54023289 -143.0318718 74.77648289 -143.5 71.1875 C-143.01830588 67.17338233 -142.05218166 65.84332257 -139.125 63.0625 C-133.74589798 59.44405214 -128.53124456 58.3590854 -122.125 58.0625 C-122.125 57.4025 -122.125 56.7425 -122.125 56.0625 C-121.25617188 55.80855469 -120.38734375 55.55460937 -119.4921875 55.29296875 C-118.33976562 54.94878906 -117.18734375 54.60460937 -116 54.25 C-114.86304688 53.91355469 -113.72609375 53.57710938 -112.5546875 53.23046875 C-109.2134915 52.09263549 -106.26848253 50.65649243 -103.125 49.0625 C-100.65238222 48.09353782 -98.18242974 47.15629759 -95.6875 46.25 C-85.28315054 42.40694109 -74.87778385 38.50278067 -64.859375 33.7265625 C-63.125 33.0625 -63.125 33.0625 -60.125 33.0625 C-60.125 32.4025 -60.125 31.7425 -60.125 31.0625 C-53.5 28.0625 -53.5 28.0625 -50.125 28.0625 C-50.125 27.4025 -50.125 26.7425 -50.125 26.0625 C-44.5 23.0625 -44.5 23.0625 -41.125 23.0625 C-41.125 22.4025 -41.125 21.7425 -41.125 21.0625 C-40.53074219 20.78277344 -39.93648437 20.50304687 -39.32421875 20.21484375 C-33.50966816 17.40251835 -28.07551422 14.2414177 -22.66796875 10.7109375 C-20.18580104 9.10191327 -17.66574893 7.57676939 -15.125 6.0625 C-14.25875 5.505625 -13.3925 4.94875 -12.5 4.375 C-10.125 3.0625 -10.125 3.0625 -7.125 3.0625 C-7.125 2.4025 -7.125 1.7425 -7.125 1.0625 C-4.60024538 -0.19987731 -2.81299534 -0.03606404 0 0 Z " fill="#101828" transform="translate(619.125,380.9375)"/>
<path d="M0 0 C0 0.66 0 1.32 0 2 C0.639375 2.268125 1.27875 2.53625 1.9375 2.8125 C4 4 4 4 5 7 C5.34530278 12.35219303 5.48807959 15.66997016 2 20 C-4.85714286 26 -4.85714286 26 -9 26 C-9 26.66 -9 27.32 -9 28 C-12.78656907 30.09269664 -16.58013556 32.17238958 -20.375 34.25 C-21.96634766 35.12978516 -21.96634766 35.12978516 -23.58984375 36.02734375 C-31.30889493 40.24204041 -38.97403461 43.87775 -47.4375 46.3125 C-52.09409704 47.82143214 -55.78980604 50.34320232 -59.84765625 53.03515625 C-69.31592503 58.93669181 -79.77426612 63.58167963 -90 68 C-90.71542969 68.3196875 -91.43085937 68.639375 -92.16796875 68.96875 C-97.08491019 71.02302341 -100.7733572 71.68546135 -106 71 C-108.9375 68.5625 -108.9375 68.5625 -111 66 C-111.33 65.67 -111.66 65.34 -112 65 C-112.44168981 61.94603045 -112.4634249 59.05131453 -112 56 C-102.97028712 44.13237735 -82.25655016 39.19003555 -68.6875 33.9375 C-61.86638582 31.22071435 -55.1149653 28.07664353 -49 24 C-46.19981312 22.13320875 -43.46084156 20.71634036 -40.4375 19.25 C-34.62287013 16.41164759 -29.24525695 13.1320587 -23.8125 9.63671875 C-21.42822594 8.24920371 -19.68854708 7.4459369 -17 7 C-17 6.34 -17 5.68 -17 5 C-11.09493185 1.17264102 -7.07487342 -0.64317031 0 0 Z " fill="#101828" transform="translate(635,422)"/>
<path d="M0 0 C0.79393661 0.16364044 1.58787323 0.32728088 2.40586853 0.49588013 C6.80825182 1.11336697 11.06787237 1.10793582 15.50610352 1.06591797 C16.44504456 1.06124512 17.3839856 1.05657227 18.35137939 1.05175781 C20.38278437 1.041285 22.41417903 1.02863225 24.44555855 1.01403427 C27.66088665 0.99196802 30.87615546 0.97791789 34.09153748 0.96633911 C43.23094777 0.93277959 52.37025925 0.8910105 61.50952148 0.82861328 C67.10554188 0.79097891 72.70146221 0.76794831 78.29759026 0.75430679 C80.42866755 0.74625171 82.55973135 0.73264169 84.69073677 0.71337509 C87.66838096 0.68691442 90.64554391 0.67900475 93.62329102 0.67529297 C94.50291 0.6629361 95.38252899 0.65057922 96.2888031 0.6378479 C101.06418 0.65355618 104.07421787 0.98323159 108 4 C108.598125 4.4125 109.19625 4.825 109.8125 5.25 C111.7021598 8.03476181 111.18448949 10.74068562 111 14 C110.34 14.33 109.68 14.66 109 15 C108.90234375 13.01432292 108.8046875 11.02864583 108.70703125 9.04296875 C107.64483235 5.9737421 105.86082392 5.41429001 103 4 C100.05078175 3.50070179 100.05078175 3.50070179 96.84765625 3.49047852 C95.61611816 3.45526596 94.38458008 3.42005341 93.11572266 3.3837738 C91.76465904 3.36068872 90.4135842 3.33825318 89.0625 3.31640625 C87.64109635 3.28356664 86.21970968 3.24998534 84.79833984 3.2157135 C68.3440891 2.8497387 51.88350886 2.88483897 35.42626953 2.93133545 C31.2946019 2.94183299 27.16292731 2.94618772 23.03125 2.95117188 C15.02081547 2.9616841 7.01041283 2.97859346 -1 3 C-0.67 2.01 -0.34 1.02 0 0 Z " fill="#101828" transform="translate(613,680)"/>
<path d="M0 0 C2.57669688 2.27724292 3.00384469 3.01565337 3.875 6.5625 C4.52015791 8.50355215 4.52015791 8.50355215 6 10 C9.1892534 10.88514329 12.28857419 11.21161458 15.578125 11.5625 C24.54072831 12.70840362 30.68947075 16.7247251 37 23 C36.67 23.66 36.34 24.32 36 25 C35.40832031 24.41089844 34.81664062 23.82179688 34.20703125 23.21484375 C33.41683594 22.46332031 32.62664063 21.71179688 31.8125 20.9375 C30.64654297 19.80634766 30.64654297 19.80634766 29.45703125 18.65234375 C27.1282708 16.72007361 27.1282708 16.72007361 24.375 17.1875 C21.87570867 18.04252072 19.42809942 18.95938596 17 20 C17 19.34 17 18.68 17 18 C15.3603125 18.2475 15.3603125 18.2475 13.6875 18.5 C10 19 10 19 7 19 C4.05223604 12.80520671 1.82221376 6.61242722 0 0 Z " fill="#101828" transform="translate(577,640)"/>
<path d="M0 0 C3.15998545 1.05332848 5.14745336 2.68060155 7.625 4.875 C7.295 5.865 6.965 6.855 6.625 7.875 C6.295 7.215 5.965 6.555 5.625 5.875 C4.965 6.019375 4.305 6.16375 3.625 6.3125 C-3.06455688 7.56679191 -8.68378676 8.25938895 -15.375 6.875 C-16.035 5.885 -16.695 4.895 -17.375 3.875 C-15.375 1.875 -15.375 1.875 -11.75 1.75 C-10.079375 1.811875 -10.079375 1.811875 -8.375 1.875 C-8.375 2.535 -8.375 3.195 -8.375 3.875 C-7.715 3.875 -7.055 3.875 -6.375 3.875 C-6.045 3.215 -5.715 2.555 -5.375 1.875 C-2.375 -0.125 -2.375 -0.125 0 0 Z " fill="#101828" transform="translate(602.375,656.125)"/>
<path d="M0 0 C-0.99 0 -1.98 0 -3 0 C-3 0.99 -3 1.98 -3 3 C-3.66 2.67 -4.32 2.34 -5 2 C-6.08353364 3.08353364 -7.1344707 4.1992976 -8.1875 5.3125 C-15.18604651 12 -15.18604651 12 -19 12 C-19 12.66 -19 13.32 -19 14 C-19.66 14 -20.32 14 -21 14 C-21 14.66 -21 15.32 -21 16 C-21.7425 16.391875 -22.485 16.78375 -23.25 17.1875 C-26.98206204 19.64726816 -27.9752366 22.02029263 -30 26 C-30.4125 26.804375 -30.825 27.60875 -31.25 28.4375 C-31.4975 28.953125 -31.745 29.46875 -32 30 C-31.68862346 22.68265131 -28.4079943 17.31985652 -23.1875 12.234375 C-22.00179375 11.22243604 -20.79764176 10.23162495 -19.57421875 9.265625 C-17.8655755 7.96614178 -17.8655755 7.96614178 -16.1875 5.9375 C-11.87380577 2.11679939 -5.81700868 -2.19484355 0 0 Z " fill="#101828" transform="translate(645,246)"/>
<path d="M0 0 C0.33 0.66 0.66 1.32 1 2 C0.33503579 3.66734664 -0.33187412 5.33391776 -1 7 C-1.30236358 9.48859093 -1.30236358 9.48859093 -1.265625 12.0546875 C-1.26820313 12.99957031 -1.27078125 13.94445312 -1.2734375 14.91796875 C-1.26570313 15.89378906 -1.25796875 16.86960937 -1.25 17.875 C-1.25773437 18.84308594 -1.26546875 19.81117188 -1.2734375 20.80859375 C-1.25858946 26.26524779 -0.80949828 30.84436602 1 36 C-3.60119352 31.9408649 -3.80055524 26.75440091 -4.2265625 20.87109375 C-4.41030916 13.79684736 -3.71200975 7.57627234 -1 1 C-0.67 0.67 -0.34 0.34 0 0 Z " fill="#101828" transform="translate(400,313)"/>
<path d="M0 0 C0.845625 -0.01417969 1.69125 -0.02835937 2.5625 -0.04296875 C5.15408616 0.20206904 6.77024992 0.88165099 9 2.1875 C9 2.8475 9 3.5075 9 4.1875 C9.99 4.5175 10.98 4.8475 12 5.1875 C12.96306898 8.07670694 13.1955936 10.10997881 13.25 13.125 C13.27578125 13.97964844 13.3015625 14.83429688 13.328125 15.71484375 C12.93876562 18.64894478 11.93350171 19.99450201 10 22.1875 C9.34 21.8575 8.68 21.5275 8 21.1875 C8.495 20.506875 8.99 19.82625 9.5 19.125 C11.36986505 15.46318094 11.50848176 13.25535405 11 9.1875 C9.23570733 6.24701222 7.70483164 4.63053703 4.8125 2.8125 C-0.73517382 1.5796836 -6.52202538 2.95053799 -12 4.1875 C-8.54613519 0.21555547 -5.09077647 0.03880165 0 0 Z " fill="#101828" transform="translate(554,289.8125)"/>
<path d="M0 0 C0.66 0 1.32 0 2 0 C1.42415568 2.38564077 0.77772405 4.66682784 0 7 C-0.66 7 -1.32 7 -2 7 C-2 7.721875 -2 8.44375 -2 9.1875 C-3.36904451 13.03793768 -5.58051629 14.03628744 -8.9921875 16.08203125 C-11 17 -11 17 -14 17 C-13.50628906 16.51789063 -13.01257813 16.03578125 -12.50390625 15.5390625 C-11.86324219 14.90742188 -11.22257812 14.27578125 -10.5625 13.625 C-9.92441406 12.99851562 -9.28632813 12.37203125 -8.62890625 11.7265625 C-6.92117824 10.08276939 -6.92117824 10.08276939 -6 8 C-5.34 8 -4.68 8 -4 8 C-3.8453125 7.13375 -3.8453125 7.13375 -3.6875 6.25 C-2.89103535 3.64338842 -1.80934723 2.0264689 0 0 Z " fill="#101828" transform="translate(496,356)"/>
<path d="M0 0 C1.41750563 0.11509661 2.83401169 0.24253658 4.25 0.375 C5.03890625 0.44460938 5.8278125 0.51421875 6.640625 0.5859375 C9 1 9 1 10.8515625 2.0234375 C13.96302893 3.43774042 16.72785779 3.26418431 20.125 3.25 C21.98511719 3.25773437 21.98511719 3.25773437 23.8828125 3.265625 C27.10100687 3.32867066 27.10100687 3.32867066 29 1 C29 1.66 29 2.32 29 3 C30.65 3 32.3 3 34 3 C29.46242673 5.5856383 25.42225734 5.33121706 20.3125 5.3125 C19.45205078 5.32861328 18.59160156 5.34472656 17.70507812 5.36132812 C11.79389204 5.36578267 6.36060838 4.64458729 1 2 C0.67 1.34 0.34 0.68 0 0 Z " fill="#101828" transform="translate(419,368)"/>
<path d="M0 0 C0 4.04016033 -1.73255996 5.69601595 -4 9 C-4.515625 10.051875 -5.03125 11.10375 -5.5625 12.1875 C-6.83920703 14.68540507 -7.896936 16.19737372 -10 18 C-9.36397383 10.49489123 -7.72629052 6.17213337 -2 1 C-1.34 0.67 -0.68 0.34 0 0 Z " fill="#101828" transform="translate(346,475)"/>
<path d="M0 0 C-0.33 0.99 -0.66 1.98 -1 3 C-1.66 3 -2.32 3 -3 3 C-3 3.66 -3 4.32 -3 5 C-3.66 5 -4.32 5 -5 5 C-5 5.66 -5 6.32 -5 7 C-6.11375 7.5878125 -6.11375 7.5878125 -7.25 8.1875 C-10.98206204 10.64726816 -11.9752366 13.02029263 -14 17 C-14.4125 17.804375 -14.825 18.60875 -15.25 19.4375 C-15.4975 19.953125 -15.745 20.46875 -16 21 C-15.66674429 13.16849085 -11.55428419 7.61541093 -6.375 1.9375 C-4 0 -4 0 0 0 Z " fill="#101828" transform="translate(629,255)"/>
<path d="M0 0 C2.61892289 2.12008043 3.03896831 3.15865669 3.875 6.5625 C4.50427238 8.50130648 4.50427238 8.50130648 6 10 C9.23894746 10.93422702 12.32088613 11.31324998 15.67578125 11.61328125 C19.02198574 12.00255768 21.84983245 12.83238873 25 14 C25 14.33 25 14.66 25 15 C24.39414062 14.9278125 23.78828125 14.855625 23.1640625 14.78125 C17.08165405 14.1075063 11.11697862 13.88286637 5 14 C4.16235732 12.04350603 3.33000941 10.08474444 2.5 8.125 C2.0359375 7.03445313 1.571875 5.94390625 1.09375 4.8203125 C0 2 0 2 0 0 Z " fill="#101828" transform="translate(577,640)"/>
<path d="M0 0 C2.64 0 5.28 0 8 0 C8 0.66 8 1.32 8 2 C10.97 2 13.94 2 17 2 C17 1.34 17 0.68 17 0 C17.99 0.33 18.98 0.66 20 1 C18 3 18 3 14.92724609 3.22705078 C13.63898926 3.21657715 12.35073242 3.20610352 11.0234375 3.1953125 C9.99556625 3.19106766 9.99556625 3.19106766 8.94692993 3.18673706 C6.75610973 3.17553281 4.56569684 3.15042859 2.375 3.125 C0.8906309 3.11497048 -0.5937446 3.10584458 -2.078125 3.09765625 C-5.71888261 3.07559294 -9.35940156 3.04106176 -13 3 C-13 2.67 -13 2.34 -13 2 C-6.565 1.505 -6.565 1.505 0 1 C0 0.67 0 0.34 0 0 Z " fill="#101828" transform="translate(697,700)"/>
<path d="M0 0 C-1.75 3.875 -1.75 3.875 -4 5 C-5.62165752 5.12148305 -7.24884327 5.17543652 -8.875 5.1875 C-10.17050781 5.20876953 -10.17050781 5.20876953 -11.4921875 5.23046875 C-14.1241288 4.98859252 -15.73980544 4.32983541 -18 3 C-17 2 -17 2 -13.4375 1.9375 C-12.303125 1.958125 -11.16875 1.97875 -10 2 C-10 2.66 -10 3.32 -10 4 C-9.34 4 -8.68 4 -8 4 C-7.67 3.34 -7.34 2.68 -7 2 C-4 0 -4 0 0 0 Z " fill="#101828" transform="translate(604,656)"/>
<path d="M0 0 C0.66 0.33 1.32 0.66 2 1 C-0.02098152 6.89452942 -2.66216023 10.50870761 -8.25 13.3125 C-9.49450252 13.88706047 -10.74279722 14.45378811 -12 15 C-11.67 13.68 -11.34 12.36 -11 11 C-10.01 11 -9.02 11 -8 11 C-7.34 9.02 -6.68 7.04 -6 5 C-5.34 5 -4.68 5 -4 5 C-4 5.66 -4 6.32 -4 7 C-3.34 7 -2.68 7 -2 7 C-2.226875 6.401875 -2.45375 5.80375 -2.6875 5.1875 C-2.790625 4.465625 -2.89375 3.74375 -3 3 C-1.5625 1.25 -1.5625 1.25 0 0 Z " fill="#101828" transform="translate(470,354)"/>
<path d="M0 0 C0.33 0.66 0.66 1.32 1 2 C0.236875 2.226875 -0.52625 2.45375 -1.3125 2.6875 C-4.20253252 3.79508931 -4.20253252 3.79508931 -5.5625 6.625 C-6.036875 7.40875 -6.51125 8.1925 -7 9 C-8.32 9 -9.64 9 -11 9 C-10.66009204 5.94082833 -10.14301602 4.19598492 -8.3125 1.6875 C-5.37575119 -0.45553291 -3.55482252 -0.32316568 0 0 Z " fill="#101828" transform="translate(446,502)"/>
<path d="M0 0 C0 0.99 0 1.98 0 3 C0.103125 3.9075 0.20625 4.815 0.3125 5.75 C-0.09867255 10.02619454 -1.88336925 13.03261636 -5 16 C-5.99 16 -6.98 16 -8 16 C-6.49387553 10.66010414 -4.01822198 4.01822198 0 0 Z " fill="#101828" transform="translate(510,332)"/>
<path d="M0 0 C0.33 0 0.66 0 1 0 C1.57859555 9.45039392 -2.3308066 14.93644187 -8 22 C-8.33 20.68 -8.66 19.36 -9 18 C-8.34 18 -7.68 18 -7 18 C-6.87625 17.21625 -6.7525 16.4325 -6.625 15.625 C-6 13 -6 13 -4 11 C-3.67 11.33 -3.34 11.66 -3 12 C-2.01 8.04 -1.02 4.08 0 0 Z " fill="#101828" transform="translate(422,581)"/>
<path d="M0 0 C0.33 0 0.66 0 1 0 C1.49991644 2.74954039 1.37273694 4.44333078 -0.1953125 6.78515625 C-2.8509311 9.92786067 -5.53513134 12.73450895 -9 15 C-8.37394031 11.26972769 -6.69298393 8.85481583 -4.5 5.8125 C-3.8709375 4.93207031 -3.241875 4.05164063 -2.59375 3.14453125 C-1 1 -1 1 0 0 Z " fill="#101828" transform="translate(328,459)"/>
<path d="M0 0 C0.99 0 1.98 0 3 0 C3.08097324 2.27024968 3.13917704 4.54132075 3.1875 6.8125 C3.22230469 8.07707031 3.25710938 9.34164063 3.29296875 10.64453125 C3 14 3 14 0 17 C0 11.39 0 5.78 0 0 Z " fill="#101828" transform="translate(457,325)"/>
<path d="M0 0 C1.41623216 -0.05447047 2.83308191 -0.09300508 4.25 -0.125 C5.03890625 -0.14820313 5.8278125 -0.17140625 6.640625 -0.1953125 C9.20731941 0.0171622 10.7916067 0.71345895 13 2 C11.41913952 2.36504603 9.83516093 2.71660506 8.25 3.0625 C7.36828125 3.25972656 6.4865625 3.45695313 5.578125 3.66015625 C3.01320972 3.99825872 1.42908361 3.81158635 -1 3 C-0.67 2.01 -0.34 1.02 0 0 Z " fill="#101828" transform="translate(583,653)"/>
<path d="M0 0 C2.475 0.99 2.475 0.99 5 2 C1.74098981 5.51973101 -1.8860931 8.52760275 -6 11 C-6.66 11 -7.32 11 -8 11 C-8 10.01 -8 9.02 -8 8 C-7.38125 7.896875 -6.7625 7.79375 -6.125 7.6875 C-3.03693891 6.68842141 -2.30092455 4.58513108 -0.875 1.8125 C-0.58625 1.214375 -0.2975 0.61625 0 0 Z " fill="#101828" transform="translate(384,622)"/>
<path d="M0 0 C-0.58007812 0.25394531 -1.16015625 0.50789063 -1.7578125 0.76953125 C-5.34911292 2.35183688 -8.88936662 3.94263454 -12.375 5.75 C-15 7 -15 7 -18 7 C-18 6.34 -18 5.68 -18 5 C-16.68 5 -15.36 5 -14 5 C-14 4.34 -14 3.68 -14 3 C-3.48453608 -1.74226804 -3.48453608 -1.74226804 0 0 Z " fill="#101828" transform="translate(567,434)"/>
<path d="M0 0 C1.25 1.5625 1.25 1.5625 2 4 C0.93237266 6.57001015 -0.46544943 8.6530403 -2 11 C-2.66 10.34 -3.32 9.68 -4 9 C-3.6730244 6.38419521 -3.17960932 4.35921863 -2 2 C-1.34 2 -0.68 2 0 2 C0 1.34 0 0.68 0 0 Z " fill="#101828" transform="translate(475,344)"/>
<path d="M0 0 C1 2 1 2 0.3125 4.5625 C-0.3371875 5.7690625 -0.3371875 5.7690625 -1 7 C-1.61875 7.12375 -2.2375 7.2475 -2.875 7.375 C-5.61457759 8.18075812 -5.87682557 9.12292415 -7.25 11.5625 C-7.8275 12.696875 -8.405 13.83125 -9 15 C-9.33 14.01 -9.66 13.02 -10 12 C-9.07421875 10.17578125 -9.07421875 10.17578125 -7.6875 8.3125 C-7.23761719 7.68988281 -6.78773438 7.06726563 -6.32421875 6.42578125 C-5.88722656 5.95527344 -5.45023438 5.48476563 -5 5 C-4.34 5 -3.68 5 -3 5 C-2.690625 4.360625 -2.38125 3.72125 -2.0625 3.0625 C-1 1 -1 1 0 0 Z " fill="#101828" transform="translate(526,309)"/>
<path d="M0 0 C3.96 0 7.92 0 12 0 C11.67 0.99 11.34 1.98 11 3 C7.7 3 4.4 3 1 3 C0.67 2.01 0.34 1.02 0 0 Z " fill="#101828" transform="translate(659,295)"/>
<path d="M0 0 C0.33 0.66 0.66 1.32 1 2 C-4.625 5 -4.625 5 -8 5 C-8 5.66 -8 6.32 -8 7 C-9.98 7.66 -11.96 8.32 -14 9 C-13.34 7.68 -12.68 6.36 -12 5 C-11.34 5 -10.68 5 -10 5 C-9.67 4.34 -9.34 3.68 -9 3 C-8.34 3 -7.68 3 -7 3 C-6.67 2.34 -6.34 1.68 -6 1 C-2.9375 0.375 -2.9375 0.375 0 0 Z " fill="#101828" transform="translate(619,403)"/>
<path d="M0 0 C0.33 0.66 0.66 1.32 1 2 C2.32 1.67 3.64 1.34 5 1 C4.05208333 2.421875 3.10416667 3.84375 2.15625 5.265625 C1.58390625 6.12414062 1.58390625 6.12414062 1 7 C-0.33333333 9 -1.66666667 11 -3 13 C-3.66 12.67 -4.32 12.34 -5 12 C-3.99518429 9.99036858 -2.99167985 7.98433854 -1.9375 6 C-1.00499339 4.01065256 -0.45925984 2.14321257 0 0 Z " fill="#101828" transform="translate(510,370)"/>
<path d="M0 0 C1.65 0 3.3 0 5 0 C0.35944002 4.19147353 -5.59845756 8 -12 8 C-11.67 7.01 -11.34 6.02 -11 5 C-9.35 5 -7.7 5 -6 5 C-6 4.34 -6 3.68 -6 3 C-5.195625 2.87625 -4.39125 2.7525 -3.5625 2.625 C-2.716875 2.41875 -1.87125 2.2125 -1 2 C-0.67 1.34 -0.34 0.68 0 0 Z " fill="#101828" transform="translate(387,437)"/>
<path d="M0 0 C0.66 0.33 1.32 0.66 2 1 C1.34 1.66 0.68 2.32 0 3 C0 3.99 0 4.98 0 6 C-2.8125 7.125 -2.8125 7.125 -6 8 C-6.99 7.34 -7.98 6.68 -9 6 C-7.68 5.67 -6.36 5.34 -5 5 C-5 4.34 -5 3.68 -5 3 C-2.625 1.3125 -2.625 1.3125 0 0 Z " fill="#101828" transform="translate(480,374)"/>
<path d="M0 0 C0.80695312 0.15339844 1.61390625 0.30679688 2.4453125 0.46484375 C6.59047179 1.0888952 10.6922296 1.34627204 14.875 1.5625 C15.65875 1.60568359 16.4425 1.64886719 17.25 1.69335938 C19.16650649 1.79853351 21.08323333 1.89967925 23 2 C23 2.33 23 2.66 23 3 C15.08 3 7.16 3 -1 3 C-0.67 2.01 -0.34 1.02 0 0 Z " fill="#101828" transform="translate(613,680)"/>
<path d="M0 0 C1.1875 1.5625 1.1875 1.5625 2 4 C0.625 7.75 0.625 7.75 -1 11 C-1.66 10.67 -2.32 10.34 -3 10 C-2.25 3.375 -2.25 3.375 0 0 Z " fill="#101828" transform="translate(421,317)"/>
<path d="M0 0 C0 3 0 3 -1.390625 4.75390625 C-2.00421875 5.35074219 -2.6178125 5.94757812 -3.25 6.5625 C-3.85328125 7.16191406 -4.4565625 7.76132812 -5.078125 8.37890625 C-6.97121638 9.97572113 -8.74536429 10.99738545 -11 12 C-9.49650623 8.33213607 -7.36271208 6.31089607 -4.375 3.75 C-3.14910156 2.69039062 -3.14910156 2.69039062 -1.8984375 1.609375 C-1.27195312 1.07828125 -0.64546875 0.5471875 0 0 Z " fill="#101828" transform="translate(331,636)"/>
<path d="M0 0 C-7.11389522 6.70387244 -7.11389522 6.70387244 -12 7 C-10.95724749 3.7558811 -9.38759509 2.39805336 -6.5625 0.6875 C-3 -1 -3 -1 0 0 Z " fill="#101828" transform="translate(611,387)"/>
<path d="M0 0 C0.66 0.33 1.32 0.66 2 1 C1.67 2.32 1.34 3.64 1 5 C0.34 5 -0.32 5 -1 5 C-1.33 7.31 -1.66 9.62 -2 12 C-2.99 12.33 -3.98 12.66 -5 13 C-4.54803755 11.39402675 -4.08817673 9.79027492 -3.625 8.1875 C-3.36976563 7.29417969 -3.11453125 6.40085937 -2.8515625 5.48046875 C-2 3 -2 3 0 0 Z " fill="#101828" transform="translate(414,594)"/>
<path d="M0 0 C4.26290179 0.47365575 6.21548958 2.92238322 9 6 C9.99 7.485 9.99 7.485 11 9 C8.25851328 8.62952882 6.41406801 8.31412056 4.1875 6.625 C3 5 3 5 3 2 C2.01 1.67 1.02 1.34 0 1 C0 0.67 0 0.34 0 0 Z " fill="#101828" transform="translate(505,551)"/>
<path d="M0 0 C2.3125 0.125 2.3125 0.125 5 1 C6.75 3.9375 6.75 3.9375 8 7 C8.33 7.66 8.66 8.32 9 9 C5.05860922 7.33248852 2.2107188 4.77289351 -1 2 C-0.67 1.34 -0.34 0.68 0 0 Z " fill="#101828" transform="translate(471,553)"/>
<path d="M0 0 C1.98 0 3.96 0 6 0 C6.33 0.99 6.66 1.98 7 3 C7.66 3.33 8.32 3.66 9 4 C6.03 3.67 3.06 3.34 0 3 C0 2.01 0 1.02 0 0 Z " fill="#101828" transform="translate(640,306)"/>
<path d="M0 0 C0.33 0 0.66 0 1 0 C1.6875 3.3125 1.6875 3.3125 2 7 C0.5625 8.9375 0.5625 8.9375 -1 10 C-1 9.34 -1 8.68 -1 8 C-1.66 8 -2.32 8 -3 8 C-2.67 6.02 -2.34 4.04 -2 2 C-1.34 2 -0.68 2 0 2 C0 1.34 0 0.68 0 0 Z " fill="#101828" transform="translate(419,584)"/>
<path d="M0 0 C0.33 0 0.66 0 1 0 C1 1.65 1 3.3 1 5 C1.66 5 2.32 5 3 5 C3.66 8.3 4.32 11.6 5 15 C2.18059121 12.45343722 0.43747986 10.8279488 0 7 C-0.03888349 4.66699067 -0.0448635 2.33290199 0 0 Z " fill="#101828" transform="translate(434,511)"/>
<path d="M0 0 C0.99 0 1.98 0 3 0 C1.125 5.75 1.125 5.75 0 8 C-0.99 7.67 -1.98 7.34 -3 7 C-2.38722388 4.03824877 -1.74627478 2.61941217 0 0 Z " fill="#101828" transform="translate(516,363)"/>
<path d="M0 0 C0.66 0 1.32 0 2 0 C0.31326082 4.49797113 -1.81673892 8.72886302 -4 13 C-4.86443295 10.5653629 -5.12994709 9.36863937 -4.2578125 6.89453125 C-3.88398438 6.20746094 -3.51015625 5.52039063 -3.125 4.8125 C-2.57199219 3.77029297 -2.57199219 3.77029297 -2.0078125 2.70703125 C-1 1 -1 1 0 0 Z " fill="#101828" transform="translate(404,309)"/>
<path d="M0 0 C4.29 0.66 8.58 1.32 13 2 C13 2.66 13 3.32 13 4 C13.66 4.33 14.32 4.66 15 5 C9.33895411 4.50341703 5.12325529 3.45489316 0 1 C0 0.67 0 0.34 0 0 Z " fill="#101828" transform="translate(622,303)"/>
<path d="M0 0 C2.38564077 0.57584432 4.66682784 1.22227595 7 2 C8.1875 5.0625 8.1875 5.0625 9 8 C4.7257442 6.4169423 2.73468206 3.49431596 0 0 Z " fill="#101828" transform="translate(443,530)"/>
<path d="M0 0 C0.33 0.66 0.66 1.32 1 2 C-1.88341534 6.21422242 -4.04303419 7.76075855 -9 9 C-7.83709195 5.51127585 -6.86032391 4.90023136 -3.9375 2.8125 C-3.20402344 2.28269531 -2.47054688 1.75289063 -1.71484375 1.20703125 C-1.14894531 0.80871094 -0.58304687 0.41039062 0 0 Z " fill="#101828" transform="translate(487,370)"/>
<path d="M0 0 C0.33 0.99 0.66 1.98 1 3 C-0.375 4.5 -0.375 4.5 -2 6 C-2.66 6 -3.32 6 -4 6 C-4.28875 6.639375 -4.5775 7.27875 -4.875 7.9375 C-6 10 -6 10 -8 11 C-6.52670958 5.99081256 -3.72484762 3.48192278 0 0 Z " fill="#101828" transform="translate(659,255)"/>
<path d="M0 0 C-1.125 1.5 -1.125 1.5 -3 3 C-6.1875 3.1875 -6.1875 3.1875 -9 3 C-9 2.01 -9 1.02 -9 0 C-2.25 -1.125 -2.25 -1.125 0 0 Z " fill="#101828" transform="translate(326,507)"/>
<path d="M0 0 C0 3 0 3 -2.5 5.6875 C-3.325 6.450625 -4.15 7.21375 -5 8 C-5.66 7.34 -6.32 6.68 -7 6 C-2.25 1.125 -2.25 1.125 0 0 Z " fill="#101828" transform="translate(346,475)"/>
<path d="M0 0 C-0.33 0.66 -0.66 1.32 -1 2 C-2.32 1.67 -3.64 1.34 -5 1 C-5 1.66 -5 2.32 -5 3 C-9.455 3.495 -9.455 3.495 -14 4 C-12.66065756 1.32131513 -11.48307603 1.25045922 -8.6875 0.3125 C-7.90761719 0.04050781 -7.12773437 -0.23148437 -6.32421875 -0.51171875 C-3.81725489 -1.03839183 -2.39867657 -0.8178554 0 0 Z " fill="#101828" transform="translate(439,395)"/>
<path d="M0 0 C-1.32 0.99 -2.64 1.98 -4 3 C-4 2.34 -4 1.68 -4 1 C-4.66 1 -5.32 1 -6 1 C-6 1.66 -6 2.32 -6 3 C-8.31 3 -10.62 3 -13 3 C-12.67 2.34 -12.34 1.68 -12 1 C-4.35711773 -1.38056989 -4.35711773 -1.38056989 0 0 Z " fill="#101828" transform="translate(452,391)"/>
<path d="M0 0 C0.66 0 1.32 0 2 0 C1.52575143 4.26823714 -0.95761403 6.17492731 -4 9 C-4.8971875 9.8971875 -4.8971875 9.8971875 -5.8125 10.8125 C-6.204375 11.204375 -6.59625 11.59625 -7 12 C-6.38271885 8.61638481 -5.13020282 6.47997439 -3.0625 3.75 C-2.53785156 3.04359375 -2.01320313 2.3371875 -1.47265625 1.609375 C-0.74369141 0.81273437 -0.74369141 0.81273437 0 0 Z " fill="#101828" transform="translate(408,301)"/>
<path d="M0 0 C1.58650271 3.17300542 0.94911358 5.73083101 0 9 C-0.33 9.66 -0.66 10.32 -1 11 C-1.66 11 -2.32 11 -3 11 C-2.25 3.375 -2.25 3.375 0 0 Z " fill="#101828" transform="translate(645,276)"/>
<path d="M0 0 C0.66 0.33 1.32 0.66 2 1 C0.8125 3.5 0.8125 3.5 -1 6 C-3.6875 6.3125 -3.6875 6.3125 -6 6 C-4 4 -2 2 0 0 Z " fill="#101828" transform="translate(368,609)"/>
<path d="M0 0 C0.33 0.66 0.66 1.32 1 2 C-0.98 4.97 -0.98 4.97 -3 8 C-3.66 7.34 -4.32 6.68 -5 6 C-4.875 4 -4.875 4 -4 2 C-1.9375 0.75 -1.9375 0.75 0 0 Z " fill="#101828" transform="translate(537,330)"/>
<path d="M0 0 C0.99 0.99 1.98 1.98 3 3 C1.35 4.65 -0.3 6.3 -2 8 C-2.6875 5.6875 -2.6875 5.6875 -3 3 C-1.5625 1.1875 -1.5625 1.1875 0 0 Z " fill="#101828" transform="translate(636,264)"/>
<path d="M0 0 C1 3 1 3 1 5 C2.32 5.66 3.64 6.32 5 7 C3 7 1 7 -1 7 C-1 6.34 -1 5.68 -1 5 C-1.66 5 -2.32 5 -3 5 C-3 4.34 -3 3.68 -3 3 C-2.34 3 -1.68 3 -1 3 C-0.67 2.01 -0.34 1.02 0 0 Z " fill="#101828" transform="translate(349,650)"/>
<path d="M0 0 C0.33 0.66 0.66 1.32 1 2 C-1.31 4.64 -3.62 7.28 -6 10 C-6.66 9.67 -7.32 9.34 -8 9 C-5.36 6.03 -2.72 3.06 0 0 Z " fill="#101828" transform="translate(343,443)"/>
<path d="M0 0 C0.33 0.99 0.66 1.98 1 3 C-1.31 4.98 -3.62 6.96 -6 9 C-6.66 8.67 -7.32 8.34 -8 8 C-7.3125 5.5625 -7.3125 5.5625 -6 3 C-3.4375 2.3125 -3.4375 2.3125 -1 2 C-0.67 1.34 -0.34 0.68 0 0 Z " fill="#101828" transform="translate(638,437)"/>
<path d="M0 0 C0.66 0.33 1.32 0.66 2 1 C0.35 2.65 -1.3 4.3 -3 6 C-3.66 5.67 -4.32 5.34 -5 5 C-5 4.01 -5 3.02 -5 2 C-2.625 0.9375 -2.625 0.9375 0 0 Z " fill="#101828" transform="translate(345,626)"/>
<path d="M0 0 C2.64 0 5.28 0 8 0 C5.14521674 1.90318884 3.58058692 2.4619099 0.3125 3.125 C-0.49574219 3.29257812 -1.30398438 3.46015625 -2.13671875 3.6328125 C-2.75160156 3.75398438 -3.36648438 3.87515625 -4 4 C-3.67 3.01 -3.34 2.02 -3 1 C-2.01 1.33 -1.02 1.66 0 2 C0 1.34 0 0.68 0 0 Z " fill="#101828" transform="translate(405,429)"/>
<path d="M0 0 C-1.32 0.33 -2.64 0.66 -4 1 C-4 1.66 -4 2.32 -4 3 C-6.64 3.33 -9.28 3.66 -12 4 C-12 3.34 -12 2.68 -12 2 C-10.37787941 1.47026689 -8.75218416 0.95146893 -7.125 0.4375 C-6.22007812 0.14746094 -5.31515625 -0.14257812 -4.3828125 -0.44140625 C-2 -1 -2 -1 0 0 Z " fill="#101828" transform="translate(409,405)"/>
<path d="M0 0 C2.64752004 2.57784846 4.94432065 4.91648098 7 8 C6.67 8.99 6.34 9.98 6 11 C5.34 11 4.68 11 4 11 C3.71125 9.9275 3.4225 8.855 3.125 7.75 C2.27179891 4.90599636 1.4363497 2.56491017 0 0 Z " fill="#101828" transform="translate(471,306)"/>
<path d="M0 0 C1 3 1 3 0 6 C-0.66 6 -1.32 6 -2 6 C-2 7.98 -2 9.96 -2 12 C-2.99 11.01 -3.98 10.02 -5 9 C-4.34 7.68 -3.68 6.36 -3 5 C-2.34 5 -1.68 5 -1 5 C-0.67 3.35 -0.34 1.7 0 0 Z " fill="#101828" transform="translate(661,278)"/>
<path d="M0 0 C2.3125 0.1875 2.3125 0.1875 5 1 C6.8125 3.5625 6.8125 3.5625 8 6 C4.08597051 4.73058503 2.20927127 3.48832306 0 0 Z " fill="#101828" transform="translate(492,572)"/>
<path d="M0 0 C-1.97420135 2.52259061 -2.96745642 2.9929808 -6.1875 3.6875 C-7.5796875 3.8421875 -7.5796875 3.8421875 -9 4 C-8 1 -8 1 -5.625 -0.25 C-3 -1 -3 -1 0 0 Z " fill="#101828" transform="translate(544,421)"/>
<path d="M0 0 C0 0.99 0 1.98 0 3 C-2.3125 3.625 -2.3125 3.625 -5 4 C-5.99 3.34 -6.98 2.68 -8 2 C-4.77208445 -0.1519437 -3.71599191 -0.20086443 0 0 Z " fill="#101828" transform="translate(555,416)"/>
<path d="M0 0 C-0.33 1.32 -0.66 2.64 -1 4 C-3.64 4.33 -6.28 4.66 -9 5 C-9 4.34 -9 3.68 -9 3 C-3.375 0 -3.375 0 0 0 Z " fill="#101828" transform="translate(587,399)"/>
<path d="M0 0 C0.99 0 1.98 0 3 0 C2.67 1.32 2.34 2.64 2 4 C1.34 4 0.68 4 0 4 C-0.66 5.32 -1.32 6.64 -2 8 C-2.33 6.68 -2.66 5.36 -3 4 C-2.34 4 -1.68 4 -1 4 C-0.67 2.68 -0.34 1.36 0 0 Z " fill="#101828" transform="translate(530,339)"/>
<path d="M0 0 C3.63 0.33 7.26 0.66 11 1 C7.76746204 3.15502531 6.74849077 3.46856135 3 3 C2.01 2.01 1.02 1.02 0 0 Z " fill="#101828" transform="translate(674,297)"/>
<path d="M0 0 C-0.33 0.99 -0.66 1.98 -1 3 C-4.17242648 4.31035007 -6.55881664 5 -10 5 C-3.87096774 0 -3.87096774 0 0 0 Z " fill="#101828" transform="translate(420,295)"/>
<path d="M0 0 C0.66 0.33 1.32 0.66 2 1 C0.38405168 3.04119788 -1.2856382 5.04072937 -3 7 C-3.66 7 -4.32 7 -5 7 C-3.75023244 3.34683329 -3.32901247 2.21934164 0 0 Z " fill="#101828" transform="translate(622,262)"/>
<path d="M0 0 C2.45234885 0.98093954 3.7809268 1.68703828 5.3125 3.875 C6.1132654 6.35009306 5.86325845 7.58287634 5 10 C5 9.01 5 8.02 5 7 C4.34 7 3.68 7 3 7 C3 5.68 3 4.36 3 3 C2.01 2.67 1.02 2.34 0 2 C0 1.34 0 0.68 0 0 Z " fill="#101828" transform="translate(568,629)"/>
<path d="M0 0 C0.99 0.33 1.98 0.66 3 1 C0.375 5.875 0.375 5.875 -3 7 C-2.1654738 4.49642139 -1.20628008 2.33214148 0 0 Z " fill="#101828" transform="translate(406,606)"/>
<path d="M0 0 C-0.33 0.66 -0.66 1.32 -1 2 C-2.66500443 2.34153937 -4.33178677 2.67449498 -6 3 C-6.66 3.66 -7.32 4.32 -8 5 C-8.66 4.34 -9.32 3.68 -10 3 C-3.375 -1.125 -3.375 -1.125 0 0 Z " fill="#101828" transform="translate(383,416)"/>
<path d="M0 0 C1.60031344 3.20062687 0.03173691 5.72271806 -1 9 C-1.99 9 -2.98 9 -4 9 C-2.94124926 5.59687262 -1.99097846 2.98646769 0 0 Z " fill="#101828" transform="translate(506,339)"/>
<path d="M0 0 C0 4.29908251 -1.7148681 6.37067287 -4 10 C-4.99 10.495 -4.99 10.495 -6 11 C-4.74194623 6.49197399 -3.09592835 3.5087188 0 0 Z " fill="#101828" transform="translate(522,315)"/>
<path d="M0 0 C0.66 0.33 1.32 0.66 2 1 C1.34 2.32 0.68 3.64 0 5 C-1.65 5 -3.3 5 -5 5 C-5 4.34 -5 3.68 -5 3 C-2.625 1.3125 -2.625 1.3125 0 0 Z " fill="#101828" transform="translate(353,619)"/>
<path d="M0 0 C1.65 1.65 3.3 3.3 5 5 C4.67 5.99 4.34 6.98 4 8 C3.01 7.67 2.02 7.34 1 7 C0.67 4.69 0.34 2.38 0 0 Z " fill="#101828" transform="translate(553,601)"/>
<path d="M0 0 C1.32 0 2.64 0 4 0 C4.33 0.99 4.66 1.98 5 3 C5.66 3.66 6.32 4.32 7 5 C4.125 4.6875 4.125 4.6875 1 4 C0.34 3.01 -0.32 2.02 -1 1 C-0.67 0.67 -0.34 0.34 0 0 Z " fill="#101828" transform="translate(417,364)"/>
<path d="M0 0 C0.66 0.33 1.32 0.66 2 1 C0.125 5.75 0.125 5.75 -1 8 C-1.66 7.67 -2.32 7.34 -3 7 C-3 3 -3 3 -1.5 1.25 C-1.005 0.8375 -0.51 0.425 0 0 Z " fill="#101828" transform="translate(470,354)"/>
<path d="M0 0 C-0.33 1.32 -0.66 2.64 -1 4 C-1.66 4 -2.32 4 -3 4 C-3.33 4.99 -3.66 5.98 -4 7 C-4.66 7 -5.32 7 -6 7 C-5.37162381 3.35541809 -4.14650034 0 0 0 Z " fill="#101828" transform="translate(533,336)"/>
<path d="M0 0 C4.05606165 0.46800711 7.46588679 0.87953208 11 3 C3.49230769 3.36923077 3.49230769 3.36923077 1 1.5 C0.67 1.005 0.34 0.51 0 0 Z " fill="#101828" transform="translate(653,310)"/>
<path d="M0 0 C0.99 0.33 1.98 0.66 3 1 C2.34 2.98 1.68 4.96 1 7 C0.01 5.68 -0.98 4.36 -2 3 C-1.34 2.01 -0.68 1.02 0 0 Z " fill="#101828" transform="translate(631,271)"/>
<path d="M0 0 C3.3 0.33 6.6 0.66 10 1 C10 1.33 10 1.66 10 2 C6.7 2.33 3.4 2.66 0 3 C0 2.01 0 1.02 0 0 Z " fill="#101828" transform="translate(584,654)"/>
<path d="M0 0 C0.66 0.33 1.32 0.66 2 1 C0.35 2.65 -1.3 4.3 -3 6 C-3.66 5.34 -4.32 4.68 -5 4 C-3.35 2.68 -1.7 1.36 0 0 Z " fill="#101828" transform="translate(375,604)"/>
<path d="M0 0 C-1.485 1.98 -1.485 1.98 -3 4 C-4.65 3.67 -6.3 3.34 -8 3 C-5.53387212 -0.1151089 -3.89156016 -0.31553191 0 0 Z " fill="#101828" transform="translate(546,466)"/>
<path d="M0 0 C0.66 0.33 1.32 0.66 2 1 C0.515 3.475 0.515 3.475 -1 6 C-2.32 5.67 -3.64 5.34 -5 5 C-3.35 3.35 -1.7 1.7 0 0 Z " fill="#101828" transform="translate(353,433)"/>
<path d="M0 0 C3.63 0.33 7.26 0.66 11 1 C9.515 2.485 9.515 2.485 8 4 C7.01 3.34 6.02 2.68 5 2 C3.34450469 1.61500109 1.6777567 1.27206865 0 1 C0 0.67 0 0.34 0 0 Z " fill="#101828" transform="translate(645,244)"/>
</svg>
